<svg xmlns="http://www.w3.org/2000/svg" stroke="#000" viewBox="50 50 200 200">
  <metadata author="heraldric-coat-of-arms" license="https://creativecommons.org/publicdomain/zero/1.0"/>
  <g id="escarbuncle" stroke-width="1.2" stroke-linejoin="round">
    <g stroke-width="1">
      <rect x="96" y="52" width="8" height="96" rx="2"/>
      <rect x="52" y="96" width="96" height="8" rx="2"/>
      <g transform="rotate(45 100 100)"><rect x="96" y="52" width="8" height="96" rx="2"/></g>
      <g transform="rotate(-45 100 100)"><rect x="96" y="52" width="8" height="96" rx="2"/></g>
    </g>
    <path fill-rule="evenodd" d="M58 100a42 42 0 1 0 84 0a42 42 0 1 0 -84 0 M68 100a32 32 0 1 1 64 0a32 32 0 1 1 -64 0"/>
    <g stroke-width="0.8">
      <circle cx="100" cy="50" r="6.5"/><circle cx="100" cy="150" r="6.5"/><circle cx="50" cy="100" r="6.5"/><circle cx="150" cy="100" r="6.5"/>
      <circle cx="65" cy="65" r="6"/><circle cx="135" cy="135" r="6"/><circle cx="135" cy="65" r="6"/><circle cx="65" cy="135" r="6"/>
    </g>
    <circle class="secondary" cx="100" cy="100" r="12"/>
  </g>
</svg>
