<svg xmlns="http://www.w3.org/2000/svg" stroke="#000" viewBox="50 50 200 200">
  <metadata author="heraldric-coat-of-arms" license="https://creativecommons.org/publicdomain/zero/1.0"/>
  <g id="pomegranate" stroke-width="1.4" stroke-linejoin="round">
    <!-- slipped stem + leaves (vert) -->
    <path fill="#1a7a3e" d="M100 84 C70 96 60 70 70 58 C86 60 96 70 100 84 Z"/>
    <path fill="#1a7a3e" d="M100 84 C130 96 140 70 130 58 C114 60 104 70 100 84 Z"/>
    <!-- calyx crown -->
    <path fill="#caa15a" d="M88 78 l4 -12 l4 9 l4 -12 l4 12 l4 -9 l4 12 z"/>
    <!-- fruit body -->
    <ellipse cx="100" cy="124" rx="36" ry="40" fill="#caa15a"/>
    <!-- opening showing seeds -->
    <path fill="#7a1f12" stroke-width="1.1" d="M100 92 C84 104 84 150 100 162 C116 150 116 104 100 92 Z"/>
    <g fill="#d4202c" stroke="none">
      <circle cx="100" cy="106" r="4"/><circle cx="93" cy="116" r="4"/><circle cx="107" cy="116" r="4"/>
      <circle cx="100" cy="126" r="4"/><circle cx="93" cy="136" r="4"/><circle cx="107" cy="136" r="4"/>
      <circle cx="100" cy="146" r="4"/>
    </g>
  </g>
</svg>
