<svg xmlns="http://www.w3.org/2000/svg" stroke="#000" viewBox="50 50 200 200">
  <metadata author="heraldric-coat-of-arms" license="https://creativecommons.org/publicdomain/zero/1.0"/>
  <g id="pomegranate" stroke-width="1.4">
    <path fill="#1f7a3f" d="M100 78c-3-10-9-17-9-17 6 1 9 6 9 6s3-5 9-6c0 0-6 7-9 17z"/>
    <path fill="#1f7a3f" d="M70 96c-14-6-22 6-13 16 2-9 9-11 14-9z"/>
    <path fill="#1f7a3f" d="M130 96c14-6 22 6 13 16-2-9-9-11-14-9z"/>
    <path fill="#caa15a" d="M100 80c-22 0-36 18-36 42 0 26 18 46 36 54 18-8 36-28 36-54 0-24-14-42-36-42z"/>
    <path fill="none" d="M76 104c16 10 32 10 48 0"/>
    <g fill="#cf2030" stroke="none">
      <circle cx="86" cy="118" r="5"/><circle cx="100" cy="114" r="5"/><circle cx="114" cy="118" r="5"/>
      <circle cx="80" cy="132" r="5"/><circle cx="94" cy="130" r="5"/><circle cx="108" cy="130" r="5"/><circle cx="120" cy="132" r="5"/>
      <circle cx="86" cy="146" r="5"/><circle cx="100" cy="144" r="5"/><circle cx="114" cy="146" r="5"/>
      <circle cx="94" cy="158" r="5"/><circle cx="106" cy="158" r="5"/>
    </g>
  </g>
</svg>
